<svg width="184" height="46" viewBox="0 0 184 46" fill="none" xmlns="http://www.w3.org/2000/svg">
<path fill-rule="evenodd" clip-rule="evenodd" d="M0 44.9612L3.22466 38.9095C8.31419 30.7629 12.3159 25.1379 19.4257 16.9526C25.875 9.46552 35.6267 2.90948 44.9899 0H12.0051C5.36149 0 0 5.35345 0 11.9871V44.9612ZM26.3032 16.7974C30.6934 6.71121 45.0684 0 45.0684 0V33.0517C45.0684 39.6853 39.7069 45.0388 33.0634 45.0388H0.0397072C1.90457 42.4785 6.25592 39.6078 8.587 38.4052C9.68258 37.8463 10.8256 37.3603 11.968 36.8747C14.5526 35.7758 17.1339 34.6784 19.1546 32.7414C22.0273 29.9782 23.2194 26.1083 24.4168 22.2215C24.9845 20.3785 25.5534 18.5318 26.3032 16.7974ZM61.7356 15.0129V23.5474C61.7745 24.3621 62.435 25.0216 63.2508 25.1379H67.4856C68.4958 25.1379 69.3505 24.3233 69.3505 23.2759V16.5259C69.3505 15.0905 68.4958 14.6638 67.4856 14.6638H62.0853C61.8911 14.6638 61.7356 14.819 61.7356 15.0129ZM58.9772 13.0345C58.9772 12.4914 59.4046 12.0647 59.9873 12.0647H67.4468C69.9721 12.0647 72.0312 13.3836 72.0312 16.4871V23.3147C72.0312 25.9526 69.9721 27.7371 67.4468 27.7371H63.8336C62.8623 27.7371 62.0853 27.2328 61.6968 26.7285V35.0302C61.6968 35.2241 61.5414 35.3793 61.3471 35.3793H58.9772V13.0345ZM75.9164 27.3879V12.0647H78.2863C78.4806 12.0647 78.636 12.181 78.636 12.375V27.7371H76.2661C76.0718 27.7371 75.9164 27.5819 75.9164 27.3879ZM75.9164 7.60345V5.0431H78.2863C78.4806 5.0431 78.636 5.19828 78.636 5.39224V7.95259H76.2661C76.0718 7.95259 75.9164 7.79741 75.9164 7.60345ZM85.3184 16.4871V18.194C85.3184 18.3491 85.435 18.5043 85.6681 18.5431H92.9721C93.1664 18.5431 93.3218 18.3879 93.3218 18.194V16.4871C93.3218 15.2069 92.739 14.625 91.4958 14.625H87.1833C86.1343 14.625 85.3184 15.2457 85.3184 16.4871ZM82.5988 16.5259C82.5988 13.6164 84.6579 12.0647 87.1833 12.0647V12.0259H91.3792C93.9434 12.0259 95.9637 13.5776 95.9637 16.4871V20.0948C95.9637 20.6379 95.886 21.0647 95.1478 21.0647H86.5617C86.0566 21.0647 85.5904 20.8707 85.3184 20.4828V23.2759C85.3184 24.3233 86.1343 25.1379 87.1833 25.1379H94.9535C95.1478 25.1379 95.3032 25.2931 95.3032 25.4871V27.7371H87.1833C84.6191 27.7371 82.5988 25.681 82.5988 23.1595V16.5259ZM102.258 16.5259V23.2759C102.258 24.3233 103.073 25.1379 104.122 25.0991H109.523C109.717 25.0991 109.872 24.9828 109.872 24.7888V16.2543C109.795 15.4009 109.134 14.7414 108.357 14.6638H104.122C103.073 14.6638 102.258 15.4784 102.258 16.5259ZM109.834 4.57759C109.834 4.38362 109.989 4.22845 110.183 4.22845H112.553V26.7285C112.553 27.3103 112.126 27.7371 111.543 27.7371H104.084C101.519 27.7371 99.4992 25.681 99.4992 23.1595V16.6422C99.4992 14.0819 101.481 12.0647 104.006 12.0647H107.658C108.668 12.0647 109.445 12.5302 109.834 13.0733V4.57759ZM120.557 15.0129V23.5474C120.595 24.3621 121.217 25.0216 122.033 25.1379H126.268C127.278 25.1379 128.133 24.3233 128.133 23.2759V16.5259C128.133 15.0905 127.278 14.6638 126.268 14.6638H120.906C120.712 14.6638 120.557 14.819 120.557 15.0129ZM117.798 13.0345C117.798 12.4914 118.225 12.0647 118.808 12.0647H126.268C128.793 12.0647 130.852 13.3836 130.852 16.4871V23.3147C130.852 25.9526 128.793 27.7371 126.268 27.7371H122.655C121.683 27.7371 120.906 27.2328 120.518 26.7285V35.0302C120.518 35.2241 120.362 35.3793 120.168 35.3793H117.798V13.0345ZM134.737 27.3879V12.0647H137.107C137.302 12.0647 137.457 12.181 137.457 12.375V27.7371H135.087C134.893 27.7371 134.737 27.5819 134.737 27.3879ZM134.737 7.60345V5.0431H137.107C137.302 5.0431 137.457 5.19828 137.457 5.39224V7.95259H135.087C134.893 7.95259 134.737 7.79741 134.737 7.60345ZM144.217 15.0129V23.5474C144.295 24.3621 144.916 25.0216 145.732 25.1379H149.967C150.977 25.1379 151.832 24.3233 151.832 23.2759V16.5259C151.832 15.0905 150.977 14.6638 149.967 14.6638H144.567C144.372 14.6638 144.217 14.819 144.217 15.0129ZM141.497 13.0345C141.497 12.4914 141.925 12.0647 142.508 12.0647H149.967C152.492 12.0647 154.551 13.3836 154.551 16.4871V23.3147C154.551 25.9526 152.492 27.7371 149.967 27.7371H146.354C145.383 27.7371 144.606 27.2328 144.217 26.7285V35.0302C144.217 35.2241 144.062 35.3793 143.867 35.3793H141.497V13.0345ZM161.04 16.4871V18.194C161.04 18.3491 161.156 18.5043 161.389 18.5431H168.693C168.888 18.5431 169.043 18.3879 169.043 18.194V16.4871C169.043 15.2069 168.421 14.625 167.217 14.625H162.905C161.856 14.625 161.04 15.2457 161.04 16.4871ZM158.32 16.5259C158.32 13.6164 160.379 12.0647 162.905 12.0647V12.0259H167.062C169.626 12.0259 171.646 13.5776 171.646 16.4871V20.0948C171.646 20.6379 171.568 21.0647 170.83 21.0647H162.244C161.778 21.0647 161.312 20.8707 161.04 20.4828V23.2759C161.04 24.3233 161.856 25.1379 162.905 25.1379H170.675C170.869 25.1379 171.024 25.2931 171.024 25.4871V27.7371H162.905C160.34 27.7371 158.32 25.681 158.32 23.1595V16.5259ZM178.212 13.0733C178.6 12.5302 179.378 12.0647 180.349 12.0647V12.1034H184.001V14.3534C184.001 14.5474 183.845 14.7026 183.651 14.7026H179.727C178.872 14.7026 178.29 15.3621 178.212 16.0991V27.7371H175.842C175.648 27.7371 175.492 27.5819 175.492 27.3879V12.0647H177.862C178.057 12.0647 178.212 12.181 178.212 12.375V13.0733Z" fill="white"/>
</svg>
